<?xml version="1.0" encoding="UTF-8"?>
<svg id="Réteg_2" data-name="Réteg 2" xmlns="http://www.w3.org/2000/svg" viewBox="0 0 2534.92 1436">
  <defs>
    <style>
      .cls-1 {
        fill: none;
        stroke: #f2efe9;
        stroke-linecap: square;
        stroke-width: .5px;
      }

      .cls-2 {
        fill: #aad3df;
        fill-rule: evenodd;
      }
    </style>
  </defs>
  <g id="Réteg_1" data-name="Réteg 1">
    <path class="cls-2" d="M2197.13,626.87l-.16.06-.71-1.82.3-.15-1.29-2.54-.57-1.08-.03-.08.25.07.35.06h.27s.33.3.33.3l.11-.23.21-.14-.69-.59-1.34-1.23-.83-.98-1.04-1.6-1.38-3.11-.21-.46-.1-.45.03-.48.2-.29.25-.24,2.35-1.25.47-.25.29-.15,1.35,2.62-.53.27-.03-.05-.08.04-.06-.12-.05.02-2.04.96,2.16,4.73,1.43-.71,1.94,3.8.86-.44.18-.13.32.07.06.07.34-.16-.04-.17-.02-.36.59-.23-2.34-4.74-.71-1.43-1.24-2.35.13-.11-1.02-1.95-3.26-6.22-.11-.1-.9-.41-.07.05-.07.02-.11-.02-.05-.04-.03-.05v-.08s0-.07,0-.07l.06-.07.1-.03.09.02.35.16.73.31.14.06.1.12,3.25,6.23,3.5,1.49,6.91-2.21,6.24-2.18,1.71-.58,4.51-1.5,8.07-3.5.48.85.31.59.23.61.79.59,2.96-1.49,1.75-.8,2.15-.93.17-.08,6.23-2.87,1.02-.48,1.72-.83,2.37-1.06.02-.07-.45-.86-.3-.66-.58-1.13-1.16-2.41-.17-.35-.25-.07-.11-.13-.04-.16.02-.14.09-.14.18-.11.26.03.13.11.07.15-.02.23-.09.12.36.71.55,1.12.67.36.5.19.32-.11,6.8-2.98,1.42-.66.57-.27,2.05-.95.52-.25,10.94-5.1,23.69-11.39,9.32-4.73,41.18-20.92,3.38-1.93,5.81-3.33,7.12-4.21,12.18-9.3.71-.26.23.08.06.14-.14.09.06.1.09-.05.23.37.37.47.11-.04.02.04-.07.05.25.22.15.02.37.64.5.81.74.84,1.34,1.46v.17s.31.46.31.46l.07-.03.77-.37,2.29-1.55.37-.3,1.14-.93,1.94-1.31,1.49-1.26,2.66-1.77.15-.28.15-.17.27-.2,2.16-1.51.22.26.57-.41-.16-.24,1.24-1,.82-.81.21-.17,1.11-.88,1.33-1.09,1.62-1.23,2.15-1.82,1.68-1.36.19.09.55-.14.31-.41.05-.36,1.5-1.17,1.21-1,4.41-3.63,3.91-3.23.57-.23.78-.72,1.64-1.48,1.65-1.44.4.27,2.28-2.26,1.75-1.24.06-.6-.78-1.34-.38-1.01.16-.43,2.66-2.05,1.8,1.55.61.15.59-.42.37-.31.82-.71,1.36-1.18.24-.21,1.48-1.3.1-.06.15-.1-.06-.62.36-.23,1.44-.93v-.2s.03-.64.03-.64l.15-.15.11-.39.57-.55h.28s.46-.23.46-.23l.34-.22.36-.35.27.13.26-.14.27-.32.31-.16.23-.12.07-.77,1.69-1.24.25.21,1.04-1.13,1.09-1.2.82-.66-.11-.15.64-.62v-.12s.4-.37.4-.37l.27.2.21-.23-.09-.41,5.15-4.63,2.55-2.18.58-.99.88-.79.57-.18.47-.79-.02-.4.4-.58.57-.46-.1-.59,1.66-1.75,1.43-1.43,3.41-3.71,3.71-4.15,1.36-1.36,1.68-2.12,1.41-1.21.1-.12,2.93-3.89,3.48-4.03,2.74-3.37,1.17-1.59.18.14.3-.72-.54-.46.48-.86,2.13-3.44.46-1.79,2.83-4.21-.54-.32,2.7-4.26.07-.93.8-.85.3.86.87-1.62.85-.4.54-.68,1.14-1.88-.38-.98,1.54-3.74,1.52-2.54.25.16,1.16-1.89-.51-.57,2.58-5.06.69-1.02.91-.52.46-.75.05-.25,1.17-1.84,1.11-1.85.24.11.17-.38.02-.79.23-.48.48-.89-.11-.25.09-.27-.34-.21.1-.34-.16-.57.06-.4.09-.14.64-1.71,1.33.51.47-1.16.54.1.11-.05.09-.07.1-.11-.03-.09-.1-.08-.07-.15-.3-.3.15-.35.27-.63.27-.62.65-1.51,1.03-2.24,1-2.34.06-.59.28-.54.12-.66.69-.96-.18-.57,1.24-3.16,1.34-3.1v-.78s.82-2.24.82-2.24l1.24-3.94.45-1.59.15-.46.68-2.13.41-.76.04-1,.56-2.31.83-2.5.3-.33.73-2.07-.04-.39.28-.42.24-.65.5-1.74.39-1.82.38-1.21.11-1.42.25-.87-.05-.25.03-.95-.29-.07.05-.29-1.21.04-.19-.32-.09-.64-.27-.69.04-.46.07-.07.7-.38.09-.04.09-.52-.1-.5-.3-.35-.05-.05-.19-.19-.4-.41-.57-.65.12-.53h.25s.03-.27.03-.27l.03-.33-.41-.08.11-.52.41.07.09-.47-.98-.23-.23,1.03-.15-.04.33-1.71.13-.11h.69s.39-.94.39-.94l-.37-.09.61-2.62-.98-.27-.15-.2.8-3.25.12-.27.2-.08.15.09.2.18.26.05.08-.28-.24-.08-.06-.12.1-.05h.18s-.08-.22-.08-.22l-.23-.04-.08-.14.03-.23.57-.9,1.18-2.57,2.17-5.2.2-1.34-.05-.43-.7-2,.06-.41.05-.55.02-.28-.09-.19-.14-.19-.26-.12-3.94-.93-.84-.25-.42-.16-.55.82-.37.34-.44.27-.51.15-.5.05-.41-.03-.48-.16-.34-.17-.31-.23-.25-.25-.29-.39-.15-.3-.12-.38-.02-.32v-.46l.06-.48.2-.47.08-.12.09-.05.12.04.1.09.02.14-.19.65v.58s.11.52.11.52l.29.48.26.3.41.31.5.19.48.02.57-.11.65-.37.49-.67.22-.5.19.07,1.33.51,1.48.33,1.53.38,1.04.17.61.13.86-3.72-.77-.17-2.82-.63-3.64-.87-.27.07-.18.13-.14.19-1.39,2.6.06.15v.16s-.02.11-.02.11l-.15.13-.23.02-.15-.15-.05-.2.07-.14.18-.15,1.48-2.91.23-.23.22-.12.35-.06.43.06,6.86,1.68,1.7.38,3.04-2.64.13-.28.38-2.09.41-2.29.9-5.52,1.19-7.31-.38-.04-.25-.43.04-.52.32.04v.32l.77-.17.27-1.56.1-.55-.43-.78-.61-.25.05-2.16-.47-2.04.07-.52.16-1.97.72-.05.55-.24.36-.57.29-.84.44-1.46.34-1.43v-.8s-.38-1.62-.38-1.62l-.1-.81-.12-.58-2.53.12-.03-.23.59-.1v-.13s-.13-.02-.13-.02l-.14-.07-.06-.07-.03-.11-.05-.36-.55.08-.09-.83-1.22.14-.22-.03-.14-.14-.6-1.8-.73-2.14.11-.05v-.24s.13-.17.13-.17l.02-.24-.16-.28h-.14s-.14.11-.14.11l-.13-.05v-.19s.06-.22.06-.22l.13-.15,1.72-.43-.41-1.17.11-.23.07-.02.05-.09-.02-.11-.08-.09-.14-.06-.14-.02-.19.05-.07.05-.04.03-.08-.06.07-.08.36-.1-.02-.07-.55.12-.09-.41-.38.09-.31-.03-.16-.12-.09-.24-.43-2.27.08-.51v-.18h.46l.21-.07.45-.02.07-.07-.03-.07-.34.04-.21.04-.21.05-.17.02h-.21s0-.17,0-.17l.02-.13.03-.06.06-.06.1-.03.76-.15-.23-1.5-1.46-2.02-.38.09-.22-.03-.16-.09-.07-.19.03-.14.2-.29v-.21s.12-.12.12-.12l-.08-.31-.29.02-.04-.09-.02-.09.02-.07.05-.07.07-.04.08-.02.15.07.23-.04.07-.26v-.6l-.12-.46-.19-.19-.11-.09-.22.07h-.06s-.07-.15-.07-.15l.04-.39.06-.3.12-.18-.09-.2.11-.16h.16s.18-.05.18-.05l-.03-.49-.14-.06-.09-.06-.04-.04-.03-.07v-.11s.04-.05.04-.05l.07-.04.15-.04.59-.34-.24-1.08-.11-.63-.19.02-.05-.37.11-.02-.14-.72.2-.04-.04-.95-.43-1.19-.17-.87-.16.03-.05-.11h-.09s-.23-.66-.23-.66l-.22-.02h-.03s-.02-.02-.02-.02l-.02-.02-.02-.02-.16-.32-.02-.05v-.03s0-.03,0-.03l.04-.02.22-.11-.13-.22-1.34-.5-.45-.31-.34-.56-.25-.42-.25-.18-.22-.11h-.18s-.83.42-.83.42h-.06s-.06-.01-.06-.01l-.04-.04v-.05s0-.07,0-.07l.05-.05.96-.47-.18-.32-.24-.46-.58-.93.23-.17-.13-.25-1.19.56.18.45-.07.04-.22-.55.4-.21.19-.18.1-.25-.04-.28-.43-.84-.74-.94-.39-.34-.18-.37.02-.48.13-.41-.08-.4-.16-.29-.2-.28-.2-.48-.05-.43.07-.5-.08-.06-.04-.05-.02-.05v-.09l.07-1.02-.02-.21-.08-.28.05-.04.04-.03v-.09s0-.12,0-.12l-.05-.1-.04-.09-.05-.04-.06-.02h-.09s-.21.11-.21.11l-.23-.35-.46.24-.18.44.6,1.61-.17.06-.62-1.61-.98-2.08-.26-.94-.17-.96-.02-.61.09-.42.21-.56.06-.89.03-.84v-.7s-.26-.88-.26-.88l-.13-.3-.5-.82-1.45-2.51-.35-.58-.33-.45-.28-.29-.5-.45-.45-.36-.39-.28-.43-.24-.75-.32-1.08-.33-1.07-.2v-.02h-.22l-.09.03-.09.05-.08.05-.15.12-.09-.24-.14-.21-.15-.13-6.43-4.8-7.04-5.51-.79-.11-1.33-.14-.16-.03-.12-.05-9.1-6.54-1.95-1.38-7.54-5.3-.08-.07-.03-.09v-.07s.04-.1.04-.1l.62-.83,2.01-2.72.06.04.07-.1v-.14l-.03-.09-.05-.07-.07-.06-.08-.04-.11-.02-.12.02-.11.05-.09.1-.05.12v.13l.04.12.11.09-1.77,2.47.04.03-.09.12-.52.7-.07.06-.08.02-.08-.02-.07-.05-1.37-1.14-1.22-1-1-.82-.43-.34-.39-.28-.75-.49-.9-.58-1.39-.87-1.43-.86-.16-.1-1.18-.71-1.01-.45-.2-.54.08-.16-.43-.22-.16.29.4.2.09.27-.06.04-3.2-1.47-.73-.34-2.86-3.78.4-1.34-.92-.33-.54,1.11-3.71-.29-.36-.08-.43-.16-.36.71-.12-.06.35-.71-2.08-1.18-.23-.07h-.2s-2.62.27-2.62.27l-2.07-1.18-.26-.15-.2-.23-.98-2.11-.18-.34-.2-.16-.89-.52-.66,1.11.82.55v.03s1.23,2.49,1.23,2.49l.69,1.4-.16.1-.52-.91-4.61-2.96-1.06-.68-.7,1.32-1.69-1.32-.18-1.59-.12-.16-.11-.12-.19-.11-.52-.33-1.59-1.03-.07.09-.09-.05-.85,1.44-.11-.05-.14-.36-.18-.27-.31-.3-.38-.25-.17-.11-.09-.06-.26-.15.07-.12.65-1.05-.9-.56-.66-.41-1.32-.89-.33-.38.41-1.2-3.48-3.46-.26-.23-.41-.36-.75-.65-.9-.75-1.23-1.65-5.09-3.06-.12-.08-1.16-.73-.79,1.4-.25-.2-4.41-4.97-3.71-1.96-2.88-1.52-1.57-1.3-.18-.38-.11-.8.02-.37-.08-.49-.7-1.16-1.59-1.63-4.59-2.79-1.99-.94-1.7-.25-.22-.04-2.03-.04-3.41.46-.71.1-1.72.9-.59.7-.59,1.16.16.59.19-.04.06,1.05-.17.04-.41-.96.19-.05-.14-.59-.44-1.98-.09.03-.04.03-.16.04-4.69,1.09.59,2.26-.57.08h-5.96s-.53.03-.53.03l-.67-.08-1.05.03-.06-.24-.1-.08-.18.03-.1.21-.16.09-.18-.07-.07-.41h-.24s-.09-.27-.09-.27l-.19-.35-.15.18-.09.43-.08.04-.09-.55-.88.16-.05-.68h-.95s-.77,0-.77,0h-2.12s-1.08.43-1.08.43l-1.83-.12-.82-.21h-.27s-.12-.2-.12-.2l-.38-.09-2.07-.9v-.34s-.61-.08-.61-.08v.17l-2.05-.54-2.06-.2-.77-.34-1.24-.38-.47.05-.34-.13-.2.6-2.4-.71.55-1.56-.91-.34-.55,1.21-1.15.39.23-1.05-1.41-.3-.47,1.37-1.84-.57-.21.58-.3-.1-.54,1.58-.02.05-.15-.04-4.42-1.33.3-1.18.04-.02.49-.2-.1-.23-.48.18-.05-.16-.22-.75-.91-.51-.36.03-.14-.03-.73-.13-.77-.14-.14-.13-.1-.24-.52-.14-2.8-.75-.34-.16-.25-.11-.48-.47-.19-.21-.27-.59-.19-.85-.11-.15-.14-.17-.06-.08-.19-.24-.05-.07-.38-.18-.11-.05-.12.03-.14.03-.48.12-.2-.09-.71-.31-1.25-.91-1.23-.78-.96-.61-.17-.11-.23-.15-.79-.58-.25-.39-.53-.3-1.64-1-.42-.12-.22-.17-.14-.11.17-.19-.99-.81-.57-.33-1.3-.76-.71-.3-.56-.4-.55-.39-.21-.28-.18-.24-.16-.22-.02-.4-.06-.88-1-1.41-1.61-.46-1.12-1.43.14-.33-.15-.14-.39.55-2.7.57-5.54-1.5-4.22-2.28-.32-1.61-3.92-1.04-2.79.44-3-.88-5.43-1.6.16-.32.27-.56-2.89-1.23-5.04-2.35-15.57-6.59-3.66-2.8-7.3-7.69-5.46-5.73-1.02-.96-.73-.95-.43-.54-.18-.22-.39-.61-.74-1.23-.42-.64-.3-.54-.42-.8-.75-1.68-.62-1.46-.76-1.89-.57-1.49-.02-.05-.2-.53v-.04s-.16-.39-.16-.39l-.07-.27.02-.12.07-.07.06-.12-.05-.38-.08-.19-.09-.11-.12-.09-.13-.02-.3-.07-.14-.21-.08-.18-.14-.22.07-.09.04-.05h.04s.05-.04.05-.04l.02-.08-.05-.14-.08-.14-.3-.39-.21-.24h-.04s-.08.02-.08.02l-.11.04-.07-.06-.25-.17-1.31-.87.02-.05v-.08s0-.08,0-.08v-.07s-.03-.08-.03-.08v-.04s-.04-.06-.04-.06l-.03-.05-.03-.04.09-.09-.04-.03-.05-.02-.06-.02h-.04s-.02.12-.02.12h-.08s-.02,0-.02,0h-.01s-.02.06-.02.06v.02s0,.02,0,.02l.02.04v.03s0,.02,0,.02l-.02.04v.02s-.04.01-.04.01h-.02s-.02.04-.02.04l-.1-.07-.52-.35-.71-.44-.66-.44-.45-.43-.38-.41-.42-.45-.42-.45-.24-.19-.14-.09-.48-.32-.6-.4h-.02s-2.25-1.05-2.25-1.05l-.73-.51-.25-.22-1.22-1.28-.81-1.46-1.92-1.93-1.48-2.4-1.38-1.44-.52-1.46-.58-.46,3.96-2.14-3.08-5.56-.7.39-.18-.32-.07.04-.11.06.18.32-2.54,1.4,2.54,4.59-.49.27-.52-.96h-.94l-1.03-.49-1.16-1.18-.7-.22-.34-.11-.4-.5-1.11-.76-.75-.18.22-.63.18-.39-.32-.31-.34-.02-1.45-.54-.59-.29-.18-.43-.55-.47-.52-.16-.58-.25-.49-.53-.25-.36-.33-.18-.51.12-.77-.2-1.05-.52-.45.71-.47-.08-.57-.76-2.53-.38-.76-.31-.59-.43-.49-.69-.35-.63-.35-.98.04-.3.12-.21.3-.05.73.34.57.46,1.32.67,1.18.61,1.1-1.6-3.11-2.05-.42.54-1.45.3v-.68s.15-1.21.15-1.21l-1.54.52-2.8.68-.39.09-.83-.33-.2-.6-1.38-4.65-.09-.29-3.76-12.34-1.9.32.17,1.7.96.54.37.71,2.51,8.18.38,1.25,1.1,3.9-.98.25-.59.39-.39.62v.47s.82.98.82.98l-.26.71-.68.59-.71-.16-1.44.98-.78.76.03.89.07.86.69-.28.72.23.27.45-.04.87-.2.02-.14-.18-.51-.07-.17.28.07.21.21.14.23.11.22.02-.03.26-.41.34-.48.12-.64-.47-.32-.32-.73.09-.41.03-.15.25-.19-.02-.07.25.26.3.24.49-.45,1.32-.3.51-.12-.28.02-.27-.2-.22-.37.06-.11.33.21.2.21.2-.05.22h-.65s.23,1.23.23,1.23l-.34.41.31.6.54.1.48.41-.12.78-.71,1.08-.55.42-.61.07-.45-.21-.31.1-.27.12-.54.32-.48-.11-.55-.25-.39-.17-.71.85-.43.54-.11.02-.12-.07-.07.05h-.06s-.33-.18-.33-.18l-.14-.02-.14.05-.12.09-.05.12v.14s0,.11,0,.11l.38.31.4.16.47.46.41.48-.32.46-.28-.31-.53.29-.25.5-.1.81-.6.23-.22.71-.29,1.13-.97.78-.56.27-.02.64-.48.18-.37.31-.38.57-.09.31-.1,1.07-.51,1.48-.11.34-1.79,1.88-.28,1.11.09.88.45.79v.8s-.19,1.17-.19,1.17l-.13,1.25-.06,1.17-.35,1-.43.68.02,1.3.08.8-.35.89.11,3.19.31,1.24.02,1.75-.55,2.5-.13,1,.16,1.03.08.88-.41,1.96-.06,1.24-.42,1.17-.35.95-.49,1.18-.06.89-.49,1.61-.27,1.24-.41,1.6-.27,1.24-.34,1.47v.79s.02.37.02.37l-.36.8.02.21-.16.36-.08.82.71.87.83,1.16v.74l-.64.77.28,1.32.14.64.42,1.57,1,1.22-.07,2.31.55.83.93.58.77,1.32.38,1.83.9,1.38.06,1.57.96,1.19-.77.71,1.14,2.11,1.32,1.57.39,1.3.02.35-.03.46-.07.82-.15.63-.03.08-2.07,4.29-.14.27-.51,1.13-.29-.16-.08.18.3.15-.29.71-.37-.18-.09.2.37.18-.44.91-.05.3-.18.32-.05.09-.3.57-1.13,1.41-.84.94-.11.12-.12.14-.57.64-.12.14-.06.04-.62.39-.16.1-.05.04-.18.12-.21.14-.05.03-1.19.78-.13-.09-.06.07-.23.02-.08.12.25.17-.27.4.18.2-.26.33-.22.28-.25-.26.11-.11-.28-.23-.28.36-.16.21.22.18.05-.04.33.34-.13.33-.47-.16-.39.27.16.27.07.82-.27.02-.04-.33-.63-.29-.53-.65-.84.25.71,1.07.14.2v.2s-.14.15-.14.15l-.04.05-.03.03-.27.26-1.55,1.3-.18.12-.04.03-.83.56-.52.5-.27-.05-.91-1.42-.92.49.64,1.04-.02.05-.22.48-.63.09-.22.03h-.04s-.21.04-.21.04l-.79.11-.78.27-.29-.86-2.04.66.24.71-.29.1.37.9-.64.16h-.05s-.11.04-.11.04l-.38-.99-.58.19-.14.1-.34.31.21.64-.32.09-.05-.17-.21.05.05.18-1.71.52-.19.06-1.02.31-.05.02-.17.05-.17.07-.04.14-.35-.11-.31.03-5.29.64-.06.03-5.06,1.73-3.31,1.17-.18.15-.77,1.34-.15.06h-.11s-1.2-.77-1.2-.77l-1.08.33-5.41,4.98-1.5,3.88-4.5,11.74-.2.54-.47,5.02.04.55.22.58.36.4,2.56.61-.29.32-2.34-.48-.79,3.4,1.77.21,1.25.09.36-.35,1.3-3.21.27.18-1.51,3.57-.3.07-.55.02-2.52-.34-.76.04-.56,2.19-.16.11-.29-.03-.07.26-.83.13-.8,2.16-1.04-.05-.14,1.64.64.98.2,3.29,1.98.52.18.56-.45,2.81-3.06-.15-.25,3.12-1.73,3,.2.99-.7,2.11.38,3.82-.63,1.26-.58.5-.61.25-.63.95.36.67-.14.07-.59-.48-.15-.21-1.32-.75-.5.63,1.8,1.01.53.25-.12.36-.71,1.79-.09.22-.89-.41-.26.05-.98,1.94.08.21.21.17.25.21.24.17.06.05.06.21-.59,1.41-.14.37-.44,2.21-.36,1.8-.13.55.57,2.23-.64,3.62-1.4,1.25-2.82,10.15-3.56,4.4-3.74,7.23-7.73,7.54-.49.88-1.04.89-1.32-1.08,1.68-1.89-.48-.4-1.9,2.17,1.5,1.77-6.58,7.39-1.36.61-.7.91-.88,2.2-10.9,13.47-5.22,11.29-.84,4.61-.93-.28-.43.79-.61-.38-1.11,1.68,1.1.65.38-1.78.32.05.44-.82.77.25-2.35,5.46-.57,1.32-2.58,1.18-3.07-.42-.51.3-.29.17-.09-.09-.02-.09.14-.13-.04-.19-.2-.07-.41.21-.04.28.15.14.05-.05.09.02.05.15-7.66,5.09-1.49.99-.1.06-.88.59-.07.05-1.14.77-.3.19-.18.18-.15.2-.11.23-.18.61.25,1.43.08.49.18-.02.17,1.71-.13.03-.34.03v.07s-.33-1.59-.33-1.59l-.04-.15.25-.05-.14-.94-.1.02-.06-.36-.18-1-.08-.21-.57-1.39-.04-.1-2.27.37-.24.04-1.4.23-.11-.64-.53.09.09.62-.53.1-.04-.18h-.12s-.16.03-.16.03l.33,1.9.16,1-.23.16-.31-.16-.63-.09-1.29.12-.37.17-.89,1.64-1.8,1.28-.12-.24,1.57-1.09.36-.74.51-.73-.45-1.6-1.17.36-.68.2.54,1.73-.08.03-2.34.93.18.7-.18.07-.29-1.18,2.41-.9-.41-1.23-3.27,1.09.71,2.85.3.48,1.9.55-.05.18-1.93-.44-.41-.55-.38.14-.36-.06-.32-.24-2.22-6.59-3.01,1.16.82,1.95,2.01-.82.2.51-2.09.81.79,1.94,1.78-.7.91,1.86-1.84-.05-5.75,1.88-2.18,1.85-3.22,4.63-.34,3.08.77,1.11-2.85,2.11-2.22,2.88-5.18,12.37-.34,3.63-3.79-.87-1.75.65-.38.14-2.09-.12-3.31-.2-.35.55-1.39-.06-6.04-.27-2.92-.49-2.14-1-1.71-.8-4.05-1.67-.54-.53-8.92-3.3-1.16.16-1.55-.49-2.75-.16-1.83-.68-.62-.03-2.69-.26-2.61-1.03-4.54,1.53-3.8,3.02-1.61,8.81-2.02,3.5-1.23.88-.73.96-1.59,1.82-.82,1.83-.05.12-.83,1.4-.93,1.23-1.32.43-.86.26-.33.1-.16.21.44.73-6.51,5.25h-.06s-.37-.51-.37-.51l-.09-.11-.15-.1-.17-.05h-.21s-.22.07-.22.07l-.33.23-4.04,2.85-3.32,2.09-2.04,1.23-.16.07-.14.08-2.27,1.29.56,1.39.6.19.11.06.05.07-.03.08-.05.07h-.09l-1.09-.43-.24.11-.58-1.11-.27.15-3.66,2.08-.45.25-1.82,1.02-.21.2h-.41l-.6-.27-.33-.15-2.56-.73-3.13-.84-1.43-.54-1.77-2.45-1.41-.31-1.55,1.85-4.74-2.19-4.91-1.57-2.88-.55-4.67,1.97-2.24,3.75-1.45,4.57-.02,5.91.89,4.4.68,1.12-1.14.3-.94-1.4-.15.15.79,1.56.75-.21.34-.06,1.32,3.67.03.25.22,1.81-.17,1.01-.52.05.05,1.13-.56.73-.12.16-.29.18-.85.54-.67,1.97-1.04,2.35-.09.21-.06.21-.39.54-.34.44-.55-.07-.99.43-.13.81-.02.11-.09.57-.2.36-.22.39-.22.99.02.76-.14.12-.21.16-.55-.68-.16.09-.26-.31-.09.06-.09.07.27.36-1.51,1.23.64.79-.08.07-.1.08-.55-.23-.52-.1-.13.11-.43.35-.09.07-.24.2-.23-.08-.32.08-.16.18.1.18-.06.1-.11.2-.88.71-1.69,1.39-.89.72-.39.23-.48-.54-.25-.1.06.27.34.63-.24.28-1.06.84-1.96,1.55-.84.19-.02-.04-.16-.09-.3.06-.31.04-.37.18-.22.21.07.16v.2s-.04.02-.04.02l-.34.1-.57.16-1.79.22-1.01.06h-.63s-.18-.02-.18-.02l-1.29-.26-1.5-.4-.79-.17h-.67s-.16.02-.16.02v-.16s.12-.25.12-.25l-.11-.45-.43.08-.37.33-.29.14h-.35s-.4-.16-.4-.16l-.34-.2-.22-.39-.26-.3-.09-.04-.6-.22-1.25-.46.16-.25-.15-.08-.15.25-.15-.1-.75-.28-.19-.04-.57-.11-.24-.02-.3.04-.12-.05h-.12s-.12.05-.12.05l-.1.07-.08.09-.03.1-.02.11-.79.5-.13.08-.09.03-.88-.27-.41-.05-.41.05-4.42.93-.7.32-1.14.72-.33.04-.36-.03-.36-.14-.47-.34-4.71,1.63-7.73,3.86-.15.1-.06.19-.05,1.52-.13.24-1.85.95.28.56.09-.05.64,1.17-.1.06.87,1.63,2.91-.66.89,1.63-2.65.68-.82.21-.84-1.73.21-.07-1.48-2.7.09-.04-.32-.6-.06-.14-.41.03-.49-.48-.94.61-.43-.77-.08.04-.09.05.44.9-.11.05-.48-.92-1.14.61.7,1.38.34-.09.17.17.09.09h.18l-.04.68-.19.4-.27-.06-.02.04-.04.08v.1s.06.17.06.17l-.2.36-.36.22-.32.09-.16.04-.53-.67-.43-.03-.59.57-1.1.86-.08.08.05.22-.06.05-.59.14-.08.05-.06-.07-.32.24.05.07-1.14.86.82,1.14h.1s.43-.34.43-.34l.79.98-.11.09-.08-.12-.48.34-.1-.09-.16-.05-.22.1.56.68-.21.18-.86-1.26-.55.4-.06-.1-.07.05-.07.05.07.11-2.72,1.96-1.13.86-.38.28-.63.47-.18-.31-.07.05-.07.05.17.32-1.65,1.24-1.57,1.13-.05-.61-.66-1.03-2.08,1.14-2.2.76-1.04.84-1.8,1.45-2.46,2.05-.91,1.27-.62,1.21-.47.91-.99,2.3-.09-.03-.06-.21-.15-.03-.15.12-.21.49.06.14.28-.07.09.11-.7,1.78-.7,1.57.25,1.08-.13.28-.74.66-.25.46.91.68,1.77,1.32.12.87-1.06,1.54-.49.28-.69-.12-.14-.12.15-.11.62.09.35-.19,1-1.44-.05-.65-2.57-1.96-.46.85-.12.21-.66,1.39-.27.12-.17.36-.29.11-.2.18.53.41-.18.15-.31-.27-.4-.13h-.13s-.22.11-.22.11l-1.19.8-.16.11-.18.12-.31.21-.21.11-.36.22-.08-.04-.34-.39-.28-.34-.16.12.27.31-.12.09-.64.54.61.61-1.22,1.13-1.2.83-.22.27-.14.36.08.94-.11.5-.33.42-2.38,1.83-.48,1.02-.52.48-.69.13h-.82s-.78.27-.78.27l-.73.24-.47.05-2.08.22-.48.63-1.07,1.41-3.56.41-.57.29-.18.53-1.27,1.06-2.57,1.23-1.8.25-.6-.47-.12-.1-.02.23-.2.36-.96,1.59.2.78,2.28,1.89.15.23.03.23.03.64h-.15s-.09-.66-.09-.66l-.1-.35-2.35-1.86-.06-.14-.13-.12-1.3-1.15,1.23-1.82.07-.1-.99-.65-.07.09-1.47,1.94-.97,1.28-1.11-.86-.08.09-.71-.57-.22.25.7.58-.11.13.43.38-2.65,3.22-.09.11,5.5,4.84.46.16.43.04.21-.09.27-.15.38-.46.86-.94.88-1.08.58-.71.1.09-2.57,3.09-.51.38-.6.04-.52-.22-3.23-2.87-2.33-2-.5.72-.36.29-.88.97-.54.55-.69.7-.99,1.09-.4.22-.39-.03-.76-.77-.22-.06-.16.06-.16.06.37.38,1.07,1.02.14.4.14,1.44-4.59,4.2-2.49,5-.21,2.91-5.35,6.33-.36.1-4.25,1.76.02,1.79.97,3.39.09,1.79-.05,2.47,1.51,2.15,6.2,6.46-2.22,1.56.8.66,1.4-.3,1.29.34,4.46,3.87,1.68.17,1.21-.29.21.04.16.18.02.96-1.11,1.39-.93.57.14.2.62-.13,1.32.78,1.56.95,1.06.61,3.74,1.34,3.14.53,2.18.18,2.86-.04,3.42-.45,3.35-.73.32-.06.06.27v-.05s.02-.04.02-.04l.03-.03.04-.02h.05s.04,0,.04,0l.04.02.03.04.02.04,3.36-.62,2.25-.18v-.04s.04-.04.04-.04l.04-.03.04-.02h.05l.04.02.04.03.03.04v.04s.36-.01.36-.01l3.27.02,1.68.16,2.9.49,6.42,1.58,2.16.52.02-.04.03-.03.04-.02h.04s.04,0,.04,0l.04.02.03.04v.04s.01.05.01.05l2.53.6.03-.04.04-.03h.04s.04-.01.04-.01l.04.02.04.03.02.04v.04s0,.04,0,.04l1.35.47,1.09.55.03-.03.04-.02h.05s.04,0,.04,0l.04.02.03.04.02.04v.09s2.04,1.66,2.04,1.66l.04-.03.04-.02h.04l.04.02.04.03.03.04v.04s0,.04,0,.04l-.02.04,1.96,1.78.04-.02h.04s.04,0,.04,0l.04.02.03.04.02.04v.05s0,.04,0,.04l-.02.04,1.25,1.66,2.8,5.28,1.04,1.92,1.4,2.15h.04s.04-.01.04-.01l.04.02.04.03.02.04v.04s0,.05,0,.05l-.02.04-.03.03.55.95,1.44,1.93,2.77,2.27.94.64h1.23l.44.13.4.23,4.45,2.27-.2.36-.09.24-.09.11.09.13.37.15.24-.12.23-.38-.11-.19-.04-.17.3-.03.32-.08.4-.25.39-.35.55-.17h.64s.59.2.59.2l.3.18,2.93,2.34.13.1.11.16-.02.17-.06.09-.12.05-.14-.03-.11-.11-.05.08-1.58-1.22-1.53-1.21.24-.23-.49-.24-.53-.07-.61.16-.51.42-.98.96-.38.37-.11.48-.02.09-.07.39-.02.09-.06.45.32.67.16.44.05.78-.12.68-.17.49-.46.46-.07.69.21.65.45.52.28.64.04.63-.13.69-.3.4-1.03.5-.45.64-.2.37.14.29.51.27-.04.32-.25.18-.02.19.3.26.16.21.78.61.57.35.82.07.29-.05-.05-.38-.11-.5-.53-.8-.04-.1.08-.13.16.02.07.12v.16s.39.64.39.64l.06.21.08.47h-.06s.02.29.02.29l.54.22.32.52.07.46-.29.8-.18.32-.07.45.22,2.89,1.36,3.2.15.55.03.65.06.11.11.07.96-.03v.27s-.3.01-.3.01v-.18s-.67.02-.67.02l-.1.06-.06.12v.62s-.18.86-.18.86l-.31.76-.55,2.38-.34.56-1.46,1.3-.3,2.29-.13.48-.53.44-.28.93.11.49.35-.08.23.18.09.58-.36,1.12-.02.35-.22.12.39.89,1.19,2.28.18.28,2.61,3.91.07.1,5.65,7.89,1.12,1.28,1.28,1.25,2.75,2.77.63.92.44.33.12.42-.23.3.07,1.07-.14.65-.25.62-1.34,2.73.05.3-.27.17-.16.41-.16.48-.2.5-.05.38-.21.72.09,1.97.14.44.08.26.24.49.22.45.19.38.62.96h.31s.32.11.32.11l2.46,1.12.63.5.21.25.13.23.1.35.02.33-.02.04-.05.04h-.07s-.05-.07-.05-.07l-.04-.29-.08-.31-.1-.2-.19-.24-.6-.49-2.58-1.24-.3.08.19.32.66,1.11-.08.1-.14-.05-.95-1.54-2.36-.55-.21.91,2.09.44-.02.16-2.09-.45-.22,1.26,2.07.38.3.06-.02.24-1.08-.24-.72.18-.66.6-.3,2.19-.55.84-.82,2.61.12.96-.11.38,1.15.45.2.34.28.48v.11l-.14.13-.14-.11.03-.03-.39-.84-1.04-.41-.52,1.84.76.25.29-.02.09.2-.11.11h-.18s-.11-.08-.11-.08l-.81-.25h-.38l-.63,1.94-.12.54-.25,1.08-1.2,2.97-.34,1.12-.66,2.19-.7,2.88-2.22,7.45-.45,1.28-.67,1.88-1.28,2.53-1.19,2.4.35.75.22.36-1.48,2.04-.66-.65-.2-1-.37-.27-.34-.02.03.15-.34.07.46,2.2-.18.04-.45-2.2-.64.13-.25.41-.05.59-.03.86v.7s.23.14.23.14l.08.18-.12.23-.25.09-.18-.14-.07-.44.14-1.43-.04-.48-.11-.32-.28-.29-.43-.18-5.06.14-4.07.09-3.79-.58-2.77-.43-1.02.39-.97.62-.68.78-.12-.08.29-.39-.07-1.07-2.52-.16-.25-.43-.07.02-.06.02.16.34-.36.19-.28-.57-.15.05-.32,1.09-.19.66v.19l.02.18.1.13.36.05,2.25.02.28.09.1.12-.09.25-.25.11h-.88s-1.27.21-1.27.21l-.6-.46-.48-.79.29-.6-.12-.75.13-.44-.12-.27-.28-.25-.79-.69-1.88-.47-2.79.23-3.61-1.12-6.06-1.52-1.43-.97-2.45-1.73-.41-.6-3.38-3.56-4.19-5.13-2.68-1.92-2.45-.88-3.71-3.06-.86-.58-2.52-2.58-1.07-.88-3.02-3.61-.16-.2-1.14-.7-.61-.71-.22-.34-3.89-3.77-1.2,1.38-1.35-.81-.41-.54-5.3-5.62-1.52-.62-1.86-1.68-3.41-1.92-6.15-4.92-3.02-2.04-2.61-.25-3.35-.21-2.85-1.79-1.03-.82-1.98-1.57-.79-.41-.93-.05-.51-.31-.57-.37-.1-.06-.95-1.09-.61-.94.18-.79-.04-.73-.62-2.42.16-1.06v-.72s-.07-.98-.07-.98l-.24-1.17.03-1.96-.1-.39-.19-.76-.34-1.71-.14-.74.13-3.16-.11-.47.2-4.42.04-.89-.17.04-.09-5.66-.11-2.98-.85-3.8.17-1.02-.7-.26v-.82l-.22-1.02-.92-.39-1.18-1.41-.39-.47-2.87-2.54-2.12-3.09h-.39l-1.34-.93-3.02-3.22-1.05-1.62-.8-.44-.75-.56-2.57-1.91-3.07-1.22-.89-.33-2.32-.7-2.03-.93-1.5-.84-1.11-1.25-1.14-3.75-.62-2.58.34-2.27-.21-2.68-.48-1.34-1.27-1.96-1.18-1.25-.3-.32-2.34-3.23-1.58-.86-1.99.31-1.74.58-.42.14-.34,2.06-.64.61-.71.68-.39.22-.41.1-.46-.15-.48-.37-1.56,1.3.21,1.29-.61,2.38-2.37,1.72-1.55,1.86-1.99.79-2.43,5.98-1,4.51-.76,3.46,2.23,3.92.05.1,1.05,1.86-3.58,1.59-.81,1.74-2.15,7.13,1.67,2.28-.04.93-.13.24-.76,1.36.65.77-.55,1.31.47.54-2.15,1.87-.36.27-1.25-1.72-3.35,2.27-.45-.43-.53.4-.09.07-1.68,1.14-5.32.91-4.34.78-3.88-.02-4.11.25-3.4.07-3.59,1.48-1.64,2.04-.53.66-3.28,4-2.32,5.39-2.34,2.14.08.9-3.68,3.02-3.52,1.16-1.54.48.96,2.94-3.92,2.81-1.08.77-.93,1.28-.67.41-2.2,1.36-1.3-1.21-.66.39-1.59,2.19-.21,1-.47,2.11-.88.78,1.86,2.37-.73.71.23.6-.07.04-1.15-1.2-.51-.05-.95,2.93-.57,2.04-.37,2.65-1.79,2.43-2.02,1.63-1.65.8-1.9.68-4.46,3.83-.29.54-.14.04.04.34-.06.14-.14.02-.16-.07-.03-.17-.2-.06-.24-.29-.23-.05-.24.29.38.57-.43.51-.82-.29-.48-.66-.56.29-.73.34v.08s-.02.07-.02.07l-.06.05-.07.02-.08-.02-.05-.05-1.22.6-1.19-.79-1.03.32-2.06,1.33-.24.12-2.09,1-.05,1.12-.37.54.39.68-4.43,2.61-2.92,1.8-.23.14-.21.13-1.66,1.03-7.57,4.51-.18-.36-.92-1.47-1.12-.75-.24-.93-2.39.91-3.74,1.47-1.34,1.26-1.7.8-2.99.52-2.86,1.45-2.23.91-.33,1-1.62.85-1.43.75-1.23,1.42-1.17,1.29-.71.94-2.6,4.41-1.95,3.43-.52,1.82-.37,2.46-.44,2.91-.82,2.12.52.75-.23.48.34.22-.33.67-.6-.39-.54,1.2-1.83,1.73-1.41,1.16.79,1.29-.36.1-.44-.15-.4-.23-.54.14h-.56s-.75.19-.75.19l-1.58.68-.18.15-.35.27-1.12-.12-.24.13-.32-.05h-.34s-.13.02-.13.02l-.11.1-.47.03-.43.13-.08-.11h-.13s-.15.25-.15.25l-.43.13-.24-.23h-.16v.27l-.57.05-.05-.17-.56.2-.2.07-.38-.18-.11-.21-1.36.11-4.18.12-.79.25-.72-.08-.75.41-.65-.39-.69-.04-.3.22-.58-.16-.11-.16-.81-.08-3.03-.3-3.93-.22-1.3.14-2.75.47-.53.41-1.45.36-2.09.88-4.48,1.77-7.62,2.68-4.2,1.44-.17.06-.81.29-3.49,1.25-7.79,3.09-.42.08h-.22s-.37-.28-.37-.28l-.32-.07-.39.05-.22.12-1.41.29-.39.03-.32.03-1.16.1h-.11s-6.1.02-6.1.02l-1.39.11-2.83-.09-1.36.14-.3.03h-2.32s-.22.68-.22.68l-.2.2-.29-.02-.46.03-.73.25-.73.47.77,2.15.6,1.69.03.16-.04.16-.26.06-.17-.21-1.07-3.16-.44-.88-.41-.12-4.27-.76-1.27-.27-1.24-.26-1.91-.41-.55-.23-.73-.4-.68-.36-2.11-.67-.52-.04-.26-.02-1.61-.41-1.86-.28-2.92,1.01-3.05.84-4.19-.27-4.34.85-4.95.94-3.02,1.78-1.77.55-1.64,1.88-2.32-.21-3.05-.52-4.98,1.59-2.58.28-1.28.14-2.46-.8-2.47-.57-1.62-.64-1.73-.37-.36,1.21-.96.31-.43-1.62-.71-.29-1.04-.13-2.63.36-4.4,1.26.63,12.18-.89.82.3.39.86,1.09-.05,1.22,1.39.76-.15.36-.7-.36-.43-.14-.23-.02-.32.08-.33.37-1.52,3.38-4.58,1.58-3.67-1.59-.62-.28-.56,1.36-.45,1.1.58,1.28-.05.06.32,1.2.04.31-.04.25-.12.24-.2.23-1.63.88-.23.03-.25-.04-1.4-.76-.03-.07.07-.09h.07s1.33.77,1.33.77l.2.02.2-.05,1.44-.74.16-.13.12-.18.11-.27.02-.38-.31-1.16-.14.07-.93-1.94-.76-2.8-.14.03-.18-.65-.37.1.14.53-2.51.64.77,3.11,2.08,1.23.09.16-.03.12-.11.11h-.18s-1.91-1.12-1.91-1.12l-.16-.25-.47-1.87-.31-1.39-.93.05-.81-.55-.08-.05-1.95-1.16-.94-.25h-.1s-.83-.12-.83-.12l-.29-.04.14-.39.08-.23-.06-.12-.1-.3-.1-.19-.37-.14-2.3-.8-.41-.14-2.8-1.09-.36.2-.38-.29-.25-.19-1.86-.35h-.07s-1.24.05-1.24.05l-2.5-.95-1.98-.37-.63-.35-.13.03-.08.02-1.16-1.75-1.05.39-.13.05-.41-.1-1.08-.25-1.88-.43h-.07s-1.26.05-1.26.05l-.92.26-.57.16-.77.22-.74.21-.7.17-.54.13-2.42.59-1.58.16-1.21.13-1.04.11-.29.18,1.23,1.51-.1.07-.37.27-.24.18-2.02-.67-.49.39-.27.22-.67.53-.73.58-1.34,1.21-.23.21-.54.72-.36.47-.47.63-.56.75-.41.55-.09.12-.15.26-.18.31-.21.38-.32.56-.55.96-.38.65-.5,1.5-.14.41-.11.2-.19.35-.95.97-.15.15h-.69l-2.1,1.21-.68.46-1.24.84-.11.07-.36.14-.21.08-.22.19-.22.09-.32.34-.15.11-.23.51-.29.64-2.08,4.41-.47,1.09-.36.63-.55.97-.21.09-.17-.06-.19-.17-.16.05-.32.46.05.19.31.04.11.13v.14s-2.58,4.44-2.58,4.44l-1.68-2.48-2.38.02-3.02,1.19-.5.56-5.93,2.87-3.98,1.3-2.09,1.5-.25.44-.25.45-.12.22-.05.12-.21.48-.09.21-.41.94-.04.2-.02.11-.11.59v.07s-.16.75-.16.75l-.09.46h-.1s-.06.34-.06.34l.25.1-.02.26-.05.18-.14.48-.14.48-.12.43-.19.66-.13.43-.14.48-.16.54-.25.74-.16.15-.08.29-.25.37-.08.32.03.15.12.18.28.16.2.07.03.1-.06.1-.22-.08-.02.05-.02.04.14.1-.02.13-.13.23-.06.42-.34.89-.19.51-.23.61-.15.39-.11.3v.52s.02.48.02.48v.4s.02.3.02.3l-.36.58-.02.04-.15.25-1.06.94-1,1.1-.29.25-.74.65-.05.03-.83.37-1.02.55-1.16,1.22-.59.91.37.76-.04.75-.25.3-.39-.05-.81-1.18-.51-.11-.77.41-.45.65-.79.85-1.49,1.72-1.34,1.71-.25.31-1.76,2.99-.28.34-.3.29-1.16,2.19-.32.5-.15.23-.08.94-.42.35-.07.16-.37.74-.16.34-.15.3-.24.37-.14.28-.55,1.05-.2.38-.2.38-.27.47-.36.61-.39.67-.49.84-.28.49-.33.58-.22.38-.13.25-.6,1.13-.32.6-.32.59-.57.62-.63.68-1.28,2.48-.04.46-.46.18-.16.37.26.88-1.14,1.36-.4-.38-.67.66-.12.46-2.84,2.53-.35.18-1.86,1.42-1.08.75-.73,1.01-1.26,2.13-.05.48-1.05.37-.23.62-.48.6-.54.66-.68.4-.1-.07-.29.32-1.45,1.69-4.06,4.84-.67.08-2.22,1.89-1.99,2.23-.45.39-5.6,3.93-2.43,1.88-.8,1.39-1.33,1.28.23,2.12-.73,2.44-.22.9-.12,2.4.48.62.09.21.49.33.81.55-.1.08-1.32-.82-.34.4.66.45-.11.07-.7-.48-.15.27.99.62.34-.26.14.13-.43.34-1.2-.76-.26.73-1.06.61-1.36,1.6-.29.11-.09-.06-.11.13.04.08-.2.24.07.06-.13.17-3.33,4.04-1.73,2.66-.09.54-.21.21-.31.1-.43.7-1.66,1.95-.36.51-.3.72-.08.55-.16.4-.46.97-1.21,2.16-.26-.12-.23.45-.85,1.33-1.02,1.52-.77,1.22-.49.8-.05,1.42v.36s.35,3,.35,3v.89s.18,2.55.18,2.55v.98s.03,1.27.03,1.27v.93s.03.8.03.8l-.02,1.2-.26,3.59.2.4-.07,1.08-.11,1.66-.36,1.41v.27s.27.55.27.55l-.08.15-.08.05-.71.46-.13.17-.14.17-1.26,1.71-.07.07-.04-.03-.25.08-.48.79-.57.52-.43.39-.08.07-.23.21-.18.17-.29.26-.38.33-.18.16-.09.04-1.16.35-2.12,1.44-2.06.76-2.12-.03-2.66-.38-.54.29-1.06-.41-.59-.2-.2.23-.04.11v.13s-.05.37-.05.37l-.1.2-5.27-.98-.64-.09-1.11-.16-2.94.37-.43.13-.1.03-.18.06-.6.32-3.09,1.57-.59.33-.25.61-.3.75-.04.09-.08-.02-.17.45.05.02-.64,1.53.4.15-.36,1-.3.29h-.12l-.6-.07-.24-.03-.4-.04-.92-.11h-.1s-5.5-.61-5.5-.61l-.62-1.47-.42-.91-.27-.08-.17.09-.08.21v.39s.06.27.06.27v.15s-.06.14-.06.14l-1.69.77-.05-.09-.34.16.05.09-.21.1-1.43.69-.13.06.21.45.42.93v.02s.1.23.1.23l-.8.36.13.23.5,1.14.16.2.08-.03.59,1.64-.02.05-.33.14-.06-.02-.83-1.54.06-.03-.08-.32-.38-.92-.1-.06-.3-.09-.71-.22-1.24.55-.64.28-.75.33-.08-.12-1.58.6-4.93,4.67-1.81,1.27-.8.43-.26-.2-1.39.95-.05.07-.03.09v.17s.07.11.07.11l-1.12.72-.97.6-.42.26-.1.05-3.47.89v.07s-.05.07-.05.07l-.29.14-.25.18-.93.84-.23.17-.89.38-.38.12-.8.14-.88.02-1.41-.16-.07.14h-.07s-.02-.12-.02-.12l-.08-.11v-.07s.05-.06.05-.06l.11-.07.04-.06v-.06s-.08-.14-.08-.14l-.26-.06-.22-.02-.11.07-.02.1.03.1.07.07.03.09-.02.05-.1.17h-.06s-.03-.11-.03-.11l-.62-.16-.02-.04.08-.1-.02-.09-.21-.08-1.08-.09-.29-.03-.36-.04-.79-.09-1.11-.17-3.39-1.45-.73-1,1.42-1.81-10.24-2.8-4.71-2.02-3.02-.36-.45-.05-2.53-1.49-.71-.2-1.33.12-1.07.68-1.98,1.09-4.42,1.07.26.66-4.34,2.22-.87-1.82-4.16,1.04-3.12,1.89-2.89,2.14-.46.43-.2-.19-3.05,3.65-2.25,2.38-.57.58.39.56.57.82.2.29.19.86.03.47-.16.31-.75.75-.23.02-.5-.55-.59-1.05-.3-.48-.34.12-.24.02-.04-.16-.17.06-.17.17-.07.5-.07.52-.12.22v.21s.18.13.18.13l.2.61-.16.06-.39-.43-.23-.55.13-.25-.38-.29-1.66.71-.41.96-.75.49-.95-.2h-.9s-.83-.06-.83-.06l-1.47-.28-.11.5-.65-.14-.48-.31.18-.39-.21-.1-.19.36-2.13-.78-.73-.5-1-.69-1.6-1.11-.05-.04-.44-.31.93-.8.15-.14-.37-.52-.41-.45-.34-.49-1.55-2.66-.33.08-2.77-.91-1.57-.05-3.18-1.56-2.31-.09-1.25-.32-.76-1.04-.82-.23-.65.3-.64-.15-.5-.57-1.29-.15-1.02-.41-.6-1.15-.46-.37-.57.02-.51.85-1.06,1.15-2.11,1.19.7.87,1.15,1.46.18.07.46.59-.19.21-.55-.1-2.23-2.96-2.97,1.76-.04.03-4.51,3.04-3.41,3.42-.76,1.77.65,1.38.57,1.64-3.9-.21-.45.98-.95,2.1.35,1.26-.6.5-.69.59-.09.07-.02.97-.02.21-.5.51-.47.14-.39,1.41-.1.36-.07.26-.12.43-.13.48-.18.64-.17.6-.16.57-.11.39-.07.22-.19.63-.18.57-.24.8-.34,1.16-.12.35-.21.68-.17.58-.23.76-.16.55-.07.25-.04.13-.15.45-.2.6-.2.61-.52,1.53-.04.12-.14.42-.14.41-.29.88-.21.62-.06.18-.16.25-.57.82-.19.28-.24.35-.51.74-.34.5-.3.45-.19.28-.2.29-.05.08-.75,1.57,2.11,2.87-.39.2-.39.19-.06.03-3.98,2.22-.03-.08.03-.12-.19-.48-.3.1-.48.27-.15.16-.11.02h-.14s-.17-2.4-.17-2.4l-1.75,1.03-1.96,1.63.2.25-.43.3,1.89,2.45-.08.09-2.87,3.42-.28.33-1.37-1.46-2.14.9-2.58.69-5.45-1.61-4.38-.36-2.43.35-6.11,4.68.49,1.18-1.9-.94-7.6,6.66-7.27,6.56-1.57.32-3.23.66-4.62-1.46-.04,2.27-1.11.02-1.62-3.12-1.91-.79-6.06,1.01-6.71,1.69.67,4.06-2.97.9-4.18,1.88-.09.28-1.5.19-.95.11-1.91-.06-3.47-.11-1.75-.05-.19-.62-10.31-.3-11.6-3.96-.79.95-.3-.04-2.46-.33-5.07-2.47-6.05-3.43-2.6.99.68,2.02-1.21,1.84-9.51,4.08-1.27,2.13.59,1.41.72,2.51-.08.13-.17.2-.04.09.02.09.47.68.46-.32.07.06-2.75,1.98-.81-.55-.21-.2-1.36.81-3.12,1.51-.5.72,1.02.98.07.13-.02.15-.05.17-1.13,2.28-.31.62-.03.18-.02.09-.17,1.13-.22,1.26-.03.05h-.05l-.13-.07-.06-.02h-.05s-.07.06-.07.06l-.06.07-.04.07-.02.06-.02.09-.02.09v.07s.02.08.02.08l.03.09h.16s.15,0,.15,0l.05.05v.09s0,.08,0,.08l-.86,4.98-.12.26-.6.08-1.38,2.77-2.08,2.23-1.14,1.89.4.53-.48.75-1.04,1.38.77,2.82-1.71,2.95-1.07,1.86-3.55,4.79-4.32,4.9-2.15,3.18-1.26,1.07-1.47,1.26-.87,1.48-.06.05-.07-.03-.05-.03-.11-.14-.05-.02-.07.02-.09.06-.09.11-.07.12-.05.17-.03.14.02.05.03.03.13-.02h.05l.06.04.04.05.02.06-.04.06-1.82,2.97-.12.21.51.25.09.1.21.26.36.25.07.21-.18.32-.27.13-.33-.09.62.5-.57.89-.15-.15-.86.1-.32.5-2.19,3.54,1.46,1.04.27.2-.19.14-1.85,1.64-3.66,2.43-2.79,2.62-2.5,1.63-.12.08.16.55-.09.05-.07.04-.3-.13-.17.09-.36.18-.24.2-3.16,2.65-1.54,1.51-.2.19-.45.23-.88.44-1.09.25-.43.17-.68.02-3.99-1.05-5.82-2-6.49-1.46h-.19s-.3.02-.3.02l-6.2.3-4.61-1.81-3.05-1.2-5.98-1.89-4.36-1.06-4.79-2.38-3.74-2.56-2.48-1.7-1.72-.52-3.25-.98-2.79-.65-3.55-3.19h-.18s-.67-.07-.67-.07l-.19-.08-.32-.2h-.17s-.07,0-.07,0l-.07-.06.1-.21-.04-.02-.11-.05v-.52s-.55-.31-.55-.31l-.07-.04-.57-.33-.77-.45-1.31-.84-3.38-2.05-.55,1.1-.2-.08-.75-.36-.33-.07-.15-.38-.7.05-.17.37-.14-.09.32-.83.46-1.07-.51-.19-.87,1.71h-.05s0,1.08,0,1.08l-.26.57-.02.06-.11.26-.17.42-.24.7-3.9-1.17-2.67-5.14-5.79-1.88-2.73-2.55-4.26-.74-1.38,1.23-8.21-2.82-7.3-.33-5.43,5.75-3.64,2.08-6.39-2.04-4.57,9.87-1.35,4.68-.56,1.02-.61.9-3.21,2.14-1.2.61-1.81,1.38-2.93.88-6.61.52-.26,1.08h-.23v-2.47s-2.31-.04-2.31-.04h-.23l-2.25.27-.62.22-3.38.07-5.07.57-.79-.29-.59-.55-.16-.21.02-.83-.05-.14-.12-.08-.48-.03-.24.02-.22.11-.12.16-.02.28.08.11-.08.22-.22.31-.45.09-5.75-.7-.25-.2-.1-.22-3.59-.61-1.06-.35-.51-.41-.37-1.41-.34-.14-.09,1.44-.17.34-1.29-.41-.82.07-1.08-.23-1.61-.61-2.05-1.38-2.37-.53-1.26-.87-.06-.04-2-1.4-3.06-3.5-2.22-3.21-1.25-3.08-.48-3.62-2.61-4.61-1.02-.97-1.33-2.41-2.04-1.68-6.2-4-11.75-5.67-7.41-1.59-.79.2-.36-2.3-.63-4.64-3.98-.57-3.16,1.44-2.13,3.58-5.71,2.15-5.2,2.1-2.25-2.35h-4.12l-6.76.36-3.78.17-1.26.21-.93-.45-.2-1.57-2-.45-.88,1.67-1.39-.38-.3-.2-.32-.28-.45.51-8.38-2.08-13.74,2.28-6.21,2.49-.75,8.83.12,12.63-.6,2.38-.2.37-.2-.05-.08.9-.25.44-.59.98.39.02-1.03,3.63-.27.26-1.56,1.98-.15.12.06.12.42.15,1.23-1.56.35-.3.36-.33,1.93,1.84-4.5,6.01-.6-.3-.44.23-.09.05-.05.42-10.42,13.1-3.15,3.28-3.03,3.14-3.11,3.84-3.55,5.98-1.34,3.28-1.41,2.8.38.39-.24.2-.46.37-.68.54-2.21-1.93-3.69,2.54-.85,1.62-2.51,3.67-1.62,1.39-2.88,3.11-2.41,2.25-4.63,5.27-2.64,3.86-.55,4.14-.3,1.21,1.46.77-.07,1.07.54,1.1-.78.87-.66.11-.43.56-.19.55-.05.25v.3l-.92-.08-.64.41-3.54,5.41-2.55,3.2-1.21,1.53-1.05.22-4.5,3.79-2.9,2.12-2.31,3.61-.83,2.09-1.49,1.91-.67,1.46-.66,3.23-.3,2.15-.27,7.77.44.96-.04.64-.03.44-.06,1.05-.02.28-.54,1.6-.02.6-.07,2.18.16,2.45-.65,2.58-.05.22,1.85.52-.61,3.59-1.25,3.03-.09.22-1.13,1.93-.89,1.25-.54-.35-.37.64.51.27-.73,1.12-.33.14-.71-.41-.48.26-.43-.29-.68.65-.5,1.4-.16,1.24.02.3-.25.2-.14.05-.37-.13-.36.11-.67.5-.49.35-.32.22-.14.1-.27.23-1.05.89-.12.11-4.33,3.43-.3-.48-.76.5.18.62-.27.47-.28.48-.12.22-3.81,3.73-3.08,2.01-.17.09-1.77,1.25-.85.39-3.55.06-10.39-4.35-8.01-3.54-6.86-2.78-4,.8-1.19-.44-.43.25-1.35.82-.16-.07-1.08-.44-.15-.09-.28-.18-.41-.26-.28-.18.14-.62.62-1.53-.68-.27-.18.07-.66,2.14-.74,1.27-.62.04.39-1.61,1.59-4.22-3.15-1.25-.42.19-.92,3.07-.3.45-1.38-.45-1.23-.4.56-3.89-.25-.05-1.59-.35-.78-3.58-2.78-4.19-3.16,1.39-1.79,6.82-.32-.09.21-.02.45-1.54-.23-.03-.32.13-.16.43-.14.96-.25-.07-13.25-2.5-2.33-.44-4.13-.57-4.59-.59-3.02-1.21-1.78-.71-.23-.15-.86-.91-1.63-1.72-.4-.02h-.52s-2.34.03-2.34.03h-.55s-.17.01-.17.01h-.09l-.48.02-.77.26-1.96,1.45-1.71.55-2.3-.04-1.48.35-1.33-.14-.29.02-1.89-.25-.29-.09-.49-.13-.55-.13-.25-.03-.45.06-.08-.09-.14-.16-.32-.04-.05-.52-.36-.07-.4.07-.12.5-.13-.04-.16-.07-.02-.18.08-.17.16-.36.44-1.66-.07-.29-.13-.26-.2-.02-.23.13-.48,1.82.33.34.03.25-.17.14-.21.11-.12-.08-1.26-.08-1.61-.73-4.01-1.89-2.52-1.29-1.44-.88.02-.23-6.48-3.08.34-.59h.37l.84.04.92-.36.79-.55.32-.36.47-.66.31-.75.11-.73v-.4s-2.76-1.45-2.76-1.45l-1.02-.54-.64,1.16-1.32-.7-.2.16-.33,1.03-.03,1.17-.42,1.38-.14.25,1.77,1.09-.14.39-3.62-1.95-5.73-4.21-4.93-3.77-.28-.22-4.19-1.85-4.39-1.52.65-.93.55.05.15-3.36-1.14-.06-.33-.02.04-.51h-.21s-.03.48-.03.48l-.49-.04-1.32-.07-.21,3.03.97.47,1,.02-.13,1.07-.16-.37-2.65-1.01-.29-.11-.09-.18-.27-.1-3.83-1.4-.07-.09-.02-.12v-.14s.02-.07.02-.07l.11-.11.06-.1-.02-.07-.13-.1-.12-.02-.14.02-.07.09.02.12v.13s-.07.12-.07.12l-.08.09-.11.02-3.21-1.19-1.32-.49-.86-.58-.31-.22-.96-.19-.55-.15-.16-.08-.27-.09.02-.13,1.93-.55-.13-.48-1.84.51.03.3-.24.16-.44-.12v-.32s-.57-.46-.57-.46l-.41.1v-.27s.2-.02.2-.02l.03-1.41-.46-.11-.07,1.32.22.21-1.76-1.07-1.87-.49-3.57-.95-7.71-2.07-6.36-1.6-.46-.18-.97-.27-.91-.32-.58-.25-.32-.22-.04-.19-.04-1.93-.19-.37-.23-.23-.03-.32v-.31l-.07-.13-.16-.05-.14.05-.07.17-.02.53-.09.11v.29l.08.17.61.08.09,1.97-.19.5-1.03.36-.26-.05-.33-.04.02-4.57.07-.09.05-.06.07-2.23h-.21s-1.59-.06-1.59-.06h-.91s.54.64.54.64l.58.73.75.99.19.45.16.56v.48s.04,3.12.04,3.12l-.37-.05-.6-.27-.26-.59-1.29-.71-1.07-.44-1.36.45-.61-.32-.3-.36-.76-.11-.65.35-.93-.37-2.1.06-2.06-.75-1.1-.2-.66-.77h-.08s-1.59-.22-1.59-.22l-3.18-1.12-1.35-.98-3.22-.07-.13.15-.07.03-.06-.02-.03-.06v-.05s.18-.16.18-.16l.16-.16.09-.21-.15-.17-.21-.14-.25-.11-.32-.02-.33.03-.41.11-.42.19-.22.15-.19.17-.2.33.17.16.23.17.18.11.02.03v.04s-.03.04-.03.04l-.05.04h-.07s-.2-.06-.2-.06l-1.49.83-1.96,1.44-.07-.28-.03-.11-.17-.7-.39-1.46-.16-.61-.79.26-1.42.12-5.93,1.7-.91.26-1.64.36-.07-.38-.51.13.08.43-.27.26-.56.11-.36.08-6.18,1.36h-.18l-.21-.04-.15-.05-.62-.26-.05.09-.04.09.13.1.05.15-.05.18-.1.13-.54.36-.27.16-.12.07-.89.54-.67.41-1.05.63-1.07.79-.28.19-.24.16-.54.4-.35.28-.29.24-.14.18-.21.28-.17-.07-.03.05-.03.05.18.09-.48,1.01-.17.38-.14.21-.2.13-.87.35-.2.18-.49.89-.67,1.94-1.43,3.24-1.3,2.63-.1.37-.09.32.55,1.1,3.61,1.5.07-.16,1.65.71.05-.12,1.89,1.03-.11.25-.09.22-2.04-.64-1.36.52-.39-.2.02-.19.4.2,1.16-.43-.02-.08-1.32-.58.05-.14-3.69-1.64-3.47.83-.68.51-.91.44-.59-.25-.45.32-.42.33-.54.51-.16.23.43.38.08.3-.07.49-.75.88-1.06,1.26-1.82,1.93-.55.68-.18.24-.11.19-.41,1.05-.79,2.02-.28-.08-.68,1.83-.02.24.04.27.09.26v.18l-.03.3-.73,2.11-.12.34-.02.16.03.16.14.28.12.2.17.37.12.75.05,1.02-.09.07-.09-.04v-.24s-.07-.78-.07-.78l-.11-.74-.16-.35-.16-.17-.5-.15h-.17s-.11.09-.11.09l-1.31-.11-1.02-.04-.81,1.64.68.24.05-.1.34.12-.04.09,1.77.69.55-.83.07-.02.03.05-.61.94-.1.07-.4-.04h-.39s-.44.19-.44.19l-.45.35-2.46-.52h-.32s-.2.06-.2.06l-.46,1.84-.31,1.51.81.16.02-.1,1.14.24.18-.29.12-.35-1.31-.32-.13-.16.29-1.48.96.15.07-.29,1.62.33-.02.16-.5,1.11-.82,1.19-.14.5,1.75,1.6-.54,1.02-.95,1.38-1.19.33-.63-.02-.77.22-.83.12-.28.16-.31.43-.08.19-.22.79-.08.34-.08.52-.07.67v2.74s-.44-.22-.44-.22v1.01s.42-.18.42-.18l.03.82-.31-.16v.64s.29-.17.29-.17l.24,4.87.31.66.03,1.58.74.13.52-.92.61,2.2-.5,2.1.37.78-.07,1.02-.28,1.44-1.49,2.8-1.65,6.24-.02,1.65.09,2.87-.72,8.97-.21,6.97.1,3.49,1.43.11.27.35-.45.18h-.08s-1.06-.07-1.06-.07l-.49-.03.1.32.06.21.02.05.02.07.09.3.24.45.36-.26,1.34.11-.04.16-.86.15-.74.36-.5.44-.2.49-.04.09v.38s-.01.22-.01.22l.02.73-.32.14h-.47s.08.07.08.07l.18.3.61.24.66.96-.95,7.1-.14,6.23,1.99,2.57.21,4.9-2.27,4.71-1.2,1.22.12.68-.03.11-.62.89-.29,2.12.91,1.52,1.12,1.04.95-.25.5.57,2.95,7.54-.61.33-2.73-.46-.46-.2-.55-.19-.28.45-.33-.07-.02-.1-.14-.04-.14.1-1.36-.34-.25.19,1.57.37,3.25.73.32.07.09.53-.8-.34-.92-.11-.89-.18-.9-.06-1.31-.11-.55-.29-.3.06.41.61.76.07,1.28.02,1.7.2,1.69.68.09.65.11,2.75,1.01,4.4v.84s-.82,2.21-.82,2.21l.09,1.02,1.2,2.43-.31,3.28.06.9,1.18,3.45-.28,1.7.13,3.05.3,2.59-.57,1.24.88,1.46-.07,1.36.88,3.36-.07,1.32.66,1.56,1.28.68,1.14.27.62.89-.13.93-1.08,1.06-.55,1.29.59,1.01,1.12.38,3.1.44,1.73.94,1-.12,1.32.68.4,1.25.84.85,2.84,1.6.81.14.61.69-.11.93.43.67,2.73.98,1.7.09,1.55,1.8,1.2.38,1.56.06,2.93,2.68,1.34,2.04,1.44.66,1.4-.26.75-3.06,1.12-1.53,1.14-.12,1.02.94-.09,1.38-1.03,1.84-.41,1.77,1.05,1.57,1.45.53.94,1.84.52.4h.63l.56.41.85-.02.5-.2,1.73,1.88.3.8,2.06.76.7,1.75.37,2.96-.02,2.12.81-.73.17.83,2.1-.17.46-.26,1.41-2.41,1.57-1.78.81-.39,1.41.39,1.53-.98,1.02.09,1.19.1.25.81.56,1.79.7-.21-.46-2.17.78-.21.11-.02.92-.78.29-.25,1.77.06,1.84-.57,4.28-.24,3.41-.46,2.14-.29,3.95-1.06.43-.79,1.11-.91,3.57-.69,1.52-.06,2.06-1.1,2.72-.96.29.12,1.13-.15,2-1.38,3.04-.87.66-.19,2.16-.43,2.02-1.28.37-1.32.22-.8,2.82-1.54,1.11-.37h1.37s1.64-.21,1.64-.21l2.94-1.15.97.18,1.5-.16,1-.48,1.13.53.39-.26.84.03.48.35.48-.12.46.36,1.63.63,2.93,2.9,2.39.6,1.16-.06,1.18-.41,2.29-.65,2.59-.41,2.82-1.37,1.3.22.81-.48.75-2.32,1.79-2.66,2.08-1.01.34-.43.43-1.6.62-.43.68-.03.93.39.43-.13.83-1.45.8.1.5-.22-.02-.88.67-.47.64-.07,1.75.9.67-.26.29-1.2.55-.09,1.18,1.3.54-.2-.28-1.7.56-.64,1.54-.26.94.22,1.03-.76,1.73.58.44-.13v-.86s.74-.91.74-.91l1.03.18.84-.2.55-.84,1.32-.36,1.03-.95.91.28.82-.52.34-.6,1.62-.68,2-.22.51.25.45,1.26.32.22.38.14.16-.03.15-.31.18-.11,1.55-.15.45-.17,1.02-.38,1.53.17,2.51,1.44,4.02-.03h.94s1.57-.02,1.57-.02l.81.46,1.4.79.39.09,1.06.25,1.62-.37.54-.1.38-.07,1.98-.41,3.13-.63.15,1.07.59.33h.64s.46-.18.46-.18l.35-.37.93-2.45.32-.1.25-.09.43-.14,2.05-.62,5.12-1.58,1.57.02h.31s.53.01.53.01h.49s2.24.04,2.24.04l.75.05h3.3s1.82-.02,1.82-.02h1.43s1.72.02,1.72.02l1.63-1.93.44-.66.22.21-.73,1.21-.86,1.17.28.06,10.3.14h.33s.14-1.34.14-1.34l-.09-.05-.1-.06-.3.8-8.18-.29-.17-.34-.1-.36v-.73s.14-.94.14-.94l1.54-.58,2.46.37.54.02.75.36.99.56.82.09.75.09.26.03,1.05.12.02.09v.07s.35,2.44.35,2.44l.65.32,3,1.46,6.3,3.05,1.08.52h1.5s1.88-.01,1.88-.01l2.68.04.27,1.83,8.34,1.98,4.61,1.04,8.07,4.24.32.35,15.23,7.42,1.01-1,13.38,3.98.61-1.42,1.83-3.37.22.46.22.06.2.06.18.05.12.04,1.34.09.31.02.82.05.57.17.19.05.19.06,2.33.7.24.07.21.06,2,.6.29.09.19.06,2.36.71.34.1.44.13.91.27.2.06.22.07,1.87.56.25.07.13.04.45.13.73.26.22.08.16.05,1.54.55,1.26.1.41.04.72.06,1.11.76.08.05.13.09.31.21.17.12,1.3.89.89-.16,1.79.41,1.95.74.59.21,3.28,1.06,2.9-.48.8.15,1.04.19.9.1.2.11,2.42.7,2.4.29.39.44,1.05,1.2,2.18-.81,2.13.72.84.28.31.08-.12.39.61.17.54.32.98-.1,1.41.21,5.4.79.39-.12.27-.12h.15s.38-.04.38-.04h.18s.3-.03.3-.03l.36-.52.38.26.55.11,3,.62.09.77.22-1.23.96.04,1.71.07,3.7-.21,2.64.73.49.69,2.72.4,1.05-.03,2.14-.35,1.6.08,2.27-.15,2.44.75-.41,1.04.5.38.67-.83,1.17-1.98,2.44.8.37.84.92.12.08,1.32h.91s.85.08.85.08l-.49-1.4,5.83.73,2.91-.48,1.19.58.19.49,8.41-.71.79.06.46.04.5.39.03-.84,14.89-.07,5.13.61,1.04-1.38,4.93,2.27,1.25,2.41.74,2.25.64-.46.2-.15.17-.12-1.06-2.04,1.65-2.04.51-.37.77.04.78-.66,2.11-.43,3.66.53.43-.26,1.88.46.1.55.71.2.4-.41,1.69.08,1.54-.83,1.43.24h.89s.32-.76.32-.76l.95.23.81-.66.25-.4.55-.17.77.14.75,1.66h.96s.35-.07.35-.07l.66-1.07,1.12-.94,1.21-.69,1.02.05.49-.15.51.22.51-.78.53.43.38,2.18.59.11v-1.92l.75-.63.48-.64.57-.12.91.39,1.16.03,2.56,1.52,1.41.44.2-.69.69-.29.07-.56,1.92.26,1.15-.4,1.86.55.98-.61-.2-.43.15-.53.71-.24.58-.61.99.19.69-.32.62.33,1.01-.4.18-.62,1.08.39,1.11.11.57,1.04,1.22-.12,1.23-.45,1.16-.21,3.98-1.67.86.2.44.98.07.54.53.99-1.15.2-.85,1.24-.5.32-.5.79-.21.45-.07.46.18.45.78-1.73.58-.62,1.09-.82,1.25-.22h.06s.27-.03.27-.03l.1-.03.57-.68,1.12-1.72,3.93-.84,1.14,1.03,2.47.88.93-.63.77-.52,1.03-.46,6.8-.72.72-.1.61-.08.75-.11.22-.23.18-.18,1.41-1.45,1.59.57,2.98-3.05.27-.28,2.1.7.26.08h.13s.22-.02.22-.02h.14s.25-.02.25-.02l1.37.1h.11s4.13-1.54,4.13-1.54l1.22-.73.15-.04.11-.1.66-.17,1.39-.37,2.33-.62,7.46.8h.59s.68-.15.68-.15l-.12-.8.22-.04.16.78.53-.11.07.21-.02.36v.22s0,.21,0,.21v.31s.06.26.06.26l.06.27.13.44.17.41.09-.02,2.86-.65,1.41-.45,1.64-.52-.42-2.39,1.36-.36,1.46-.39.47,1.34,1.07-.31,1.22-.35-.34-1.71,1.08-.2,1.21-.27,1.33-.27,1.48-.32.84-.38.45-.2,1.1-.49.61-.16,1.57-.42,1.5-.4,1.73.16.18.02,1.37-.51,2.73-1.02,3.05-1.13.86-.32.32-.09.89-.24.92-.25,1.15-.31,1.38-.37,2.38-.64.66-.18,1.69-.48,1.8-.44,1.61-.45,1.28-.34.68-.77.44.24,1.81-.62-.11-.65.23-.06.13-.03.27.82,1.29-.23,2.79-.7,7.63-2.09-.14-.8.11-.04.25,1.24-.43.1.27,1.27.24-.06.1-.03,1.02,4.52.29-.07.14-.04-1.52-6.89,8.63-3.2,3.14-1.23.16.03.09.12.09.1.11.04.22-.04.16-.07.12-.13v-.26l.02-.09.08-.07,6.07-2.3,3.41-1.27.14.06.09.13.04.12.09.06.11-.02.09-.04.1-.03.09-.06.02-.1-.07-.17-.02-.12.07-.12.41-.14,5.24-1.95,1.33-.52,2.39-.94,1.85-.69.68-.24.95-.34,1.16-.46.41-.22.33-.26.47-.36.81-.43.58.98,1.16-.6.56-.28.88-.49.95-.48,1.27-.64,1.46-.76.46-.2,1-.64,2.82-1.43.63.75.44.52.38-.2,1.75-.89.44-.22.16-.54.32-1.13.07-.23,1.78-.94.13-.07.9,1.42,3.46-1.72,1.99-1,.43-.37,1.74-1.53,2.12-.88.39-.16.22-.09,2.93-.1h.19s.35-.21.35-.21l2.15-1.38,3.51-2.13,3.25-2.02.28-.18.05-.39.09-.03,2.22-.79,1.91-.68.86-.31,5.31-2.91.61-.33,2.43-1.35,2.06-.16.31-.14,2.61-1.18,2.39-1.08.36-.2,3.57-1.58.48-.19,2.57-1,.65-.25,1.71-2.24.32-.28.56-.36,1.01-.51,2.39-1.21.47-.24.53-.44,3.05-1.83,1.64-2.37-2.5-5.23,3.47-2.07,6.31-3.76,5-1.57.11.22.6-.18.13.24,2.1,3.93,3.2-1.95.42-.21,2.77-1.4-.28-1.07-.82-3.22-.26-.67,1.48-.82-.02-1.72.71-.13.69.25.71-.32.73.03,1.84-1.91.27-.36,3.54-4.66,3.17-5.75,1.47.84.73-1.2,1.34-2.43-1.75.2,1.34-1.14,1.05-.71,2.27-3.52.94-1.67,4.2-6.44,5.04-5.85,2.84-2.36,3.11-2.74,1.78-1.57.66-.58.79-2.97,2.07-1.91.65.69.79-.28.04-.48.49-.29.77-.5-.79-.82,6.93-6.06,1.14.86.95-.61-1.09-1.11,2.38-2.19,3.12-2.84.8-.53,6.27-3.24,2.88-2.11,1.12.05.54-.65.16-.36.67-1.71.05-.36.41-.5.09-.11.16-.2.07-.09.08-.34-.25-.24.14-.34.29.18.7-.52-.39-.1.56-.72.56-.41.07-.3.07-.17-.16-.3-2.82-4.93-.27-.21-.38-.05-.19.23-.38-.05.05-.38.44-.25.35.02.37.21,4.05,7.17.15,1.07-1.61,3.5-.4.6-1.71.66-.29.3-.02.3.24.78,3.48-1.2,2.02-.69.98-.41.39-.34.11-.52-.83-1.75-.27-.62.29-.12-2.61-5.54-2.05-4.21-.1.03-.47-1.1.09-.21.28-.04.27.11.18.36.02.43.38.84,1.12,2.5.56,1.14.47.62.82.5.74.4,2.35.06,3.82-1.11,1.58-.03,2.54,1.08,1.2-.59,2.05-.43,1.47-1.08.41-.11,7.34-2.03-.55-1.07-.05-.79.17-.6.38-2.49.28-.49.43.25.33.49,1.08-.52.45,1.93.69.02-.59-2.26.63-.37.26-.39.06-.11.07-.13,2.46-.25,1.3.04.54,1.46,1.34-.16.44,1.17,1.62,4.81.44-.13-2.47-7.02.12-.22.32-.1.54.09,3.32,1.73,9.97-3.23,3.79-.73,2.84-.98,5.27-2.58.78-.27-.7-1.52,6.07-2.53,8.55-3.74,12.38-4.83,8.13-3.11,3.34-.92,5.33-1.57.14-.04.72-.23,1.71-1.43.62-.24.43-.36-.23-.64,2.15-1.05.51,1.07,5.65-2.78-.32-.97,5.61-2.54.59-.25.25.77-.5.27.22.48.9-.43v-.51l7.86-3.33,1.96-1.53,12.73-5.94,5.22-2.4.56-.26,2.63-1.21,13.27-6.1,1.04-.26,2.5.17,1.26.09.91.09,1.55.11,1.57-.12.85-.3.4-.28.09-.11,4.63-3.37,2.2-.6,1.36-.75.5-.27,1.3-.71,2.14-1.18,1.67-1.31,1.15-.2,1.27-.23,1.32-.77-.2-.71-.85-1.97-.07-.21.09-.32.05-.14v-.04s.11-.12.11-.12l3.12-1.54,4.84-2.23.44-.19h.12s.7.22.7.22l1.07-.51-.04-.55,5.3-2.27,6.33-2.72,4.41-2.06,3.54-1.64,2.73-1.29.18.25,5.14-2.08,1.26-.59.38-.18.28.02.5-.17.18-.39,6.52-2.95-.1-.25.87-.45,1.5-.79,1.48-.78.32.42.2-.12.12-.08-.15-.47,1.39-.79.33-.36,1.11-1.3,1.01-1.01.13-.52.55-.64-.27-.66-1.12-1.5-.54-.73-.54-.72-.54-.73-.5-.67-.02-.61.24-.48,1.58-1.14,2.51-1.93.09-.29.1-.14.23-.16.27-.04.22-.29.23-.41.05-.17-.15-.67v-.4s-.02-.41-.02-.41l-.26-.34-.03-.16-.07-.15-.41-.53-.14-.12-.2-.05-.17.02-.17.07-.1-.05-.04-.26-.09-.06-.1-.25-.11-.11-.06-.05-.08-.02-.05.02-.05.11-.07.02-.1-.07-.08-.09v-.18s.14-.15.14-.15h.4s.39.07.39.07l.27.06.9.12.86.08.36.1.38.21.24.36.11.28.16.18.06.25-.05.14.02.33.05.34.04.36.03.41.11.44.16-.02.04.61v.23s-.02.25-.02.25l-.04.27-.03.14-.09.21-.18.28-.23.24-2.2,1.62.86,1.16,1.55,2.05.55-.42.16.22.38-.29-.15-.21,1.46-1.15,1.25-.92,1.88-1.39-.98-1.25-.39-.55-.04.04-1.04-1.41.39-.27-4.6-6.14-.24-.34-.22-.14-.26-.04-.27.04-.29.27-.23.22-.36.31-.16.14-.06.06v.1s.02.04.02.04l.02.08-.06.1-.13.04-.06.03-.06-.04-.07-.13v-.11s.08-.22.08-.22l.7-.66.33-.33.24-.09.24-.05.25-.02.25.04.22.09.22.16.09.12.13.25,2.86,3.8.36.43.43.14.2.09.23.04.61-.25,9.38-3.24,4.02-1.48,1.28-.47.16-.06,1.37,3.65.95-.39.3.78.17-.07.43.87.18-.07.95-.38.23.58.16-.07.04-.02,1.14-.46-.86-2.23,1.19-.5.31-.12,1.57-.65.58,1.55,1.24-.5.9-.36.89-.36.22-.09-.89-2.51,4.58-1.65.64-.21.4.91.4.91.98-.36.24-.09-.64-1.95.71-.24,1.62-.54.74,2,.29.38.52.15.38-.15.05-.21.09-.04,3.04-.6,6.86-1.91,2.09-2.05,6.21-1.62.15.61,3.75-.89,1.04-.22.87-.19,1.6-.25.4-.83-.07-.3-.26-1.18.06-.3.28-.19,6.35-1.74,8.32-2.23.34-.09.68-.19.25-.07h.19s.16.09.16.09l.16.26.1.16.12-.04-.02-.2-.02-.11.12-.27.08-.06.12-.08,4.09-1.2,2.61-.69,1.05-.48.5-.36.57-.53.3-.41.26-.71.06-1.27.16-.04.42,1.5,1.42-.37-.16-.67.08-.02.39.34.47.24.45.12.44-.04.46-.14.71-.27,11.73-5.62,3.48-1.66,1.25-.74,1.78-1.23,1.51-1.6.62-.92.38-.72.19-.43.06-.26-1.14-3.27.39-.14,2.43,6.52.12.09,2.31-1.09.39-.54.14-.29-.04-.27-1.15-2.81-.12.04-.51-1.1-.52-1.24.36-.16-.73-1.66-.16-.23-.19-.18-1.9-1.23-.29-.05-.39-.21-.07-.07-.05-.16.08-.11.13-.03.13.05,2.52,1.63.18.17.17.25,2.54,5.27.25.41.26.45.51.48.62.45.7.33.32.11.61.05,1.09-.04,9.2-.41.43-.03.36-.05.73-.15.61-.16.3-.11.07-.03.09-.03.46-.18.45-.27.36-.22.05.02.02.05-.03.08-.25.15-.16.29.29.71.12.11.2.07h.19s.32-.16.32-.16l.13.24.58-.12.22.03.11.02.11.02.39-.16.14-.06.21-.15,1.74-1.36.04.08.07-.06.07-.05,1.89-.75.13-.21.29-.18,1.53-.97.1-.16.08-.02.06.17-.04.23-.68.35-.05.09.26.84.37.45.09.07,1.39-.55.05-.08-.07-.3.06-.27.3-.34.23-.19.02-.15-.18-.42-.03-.11.06-.06,3.11-1.22-.08-.42.12-.03.25.61.09-.04-.05-.18,2.99-1.16.82-.27.59-.2.57-.19.27-.09.2-.08.6-.23.85-.33h.21s.14.14.14.14l.13.29.68-.32v-.16s.02-.15.02-.15l.84-.34.63-.25.05-.02.07-.03.85-.27,1.64-.51,1.63-.52-.38-1.23,2.74.5.65.04.76-.3.78-.31.78-.31.29.7.12.05.77-.31.29.75h.28l.52-.2.19-.07.87-.34.27-.18.25-.42-.25-.07-.25-.42.2-.35,1.5-.63.73-.11.73-.1.73-.11.09.17.59-.09.18-.07.31-.12.46-.18.46-.18.58-.22,1.88-.7.84-.28.93-.18,1.12-.34.56-.41h.76s.77-.36.77-.36l.16.16-.11.32-.07.03-.13-.22-.39.21.22.4.53-.25.21-.34.48.02h.16s.48-.35.48-.35l.86.1.16-.22,1.52-1.02,1.43-.64.5-.13,1.22-.5.9-.26.31-.18.99-.31.46-.15.48.28.49.18.64-.05.43-.08.68-.52.5-.09.46-.2.34.24.25.61.29-.09.71-.23-.14-.41.79-.32.74-.3.78-.32.32-.13.76-.31.74-.3.39-.16.38-.15.72-.3.82-.33.92-.4.66,1.11.56-.03.18-.06.12-.05.68-.26.34-.14,1.34-.75,1.64-.89,2.79-1.3.17.26.42.04,1.34-.53.16-.29.82-1.22,1.59-3.79,13.52-6.11.26-.12,7.63-3.45,1.59-.19,1.31.04,4,.94h.91s13.13-5.32,13.13-5.32l.03-.02,8.22-3.25.23-.36-.38-1.01.18-.36,15.62-8.15,1.64-.86,1.87-1.02,2.86-1.3,5.95-1.96,1.2-1,.38-.24.43-.26,2.08-1.79,1.83-1.37,1.9-.64,1.21-1.58,1.29-.02.72.84,4.68-1.85.3-.13.39-.12,1.26-1.52,1.26.5,1.24-.71,2.04-1.5,2.96-3.03.37-.64,3.37-5.79.91-1.7-1.39-2.48-.33-.6-1.1-1.97-.37-.67-.96-1.71.18-2.17.32.07.04.29-.13.23-.11,1.1,1.41,2.62,5.21,9.66,3.04-1.46-1.67-3.12-.43.26-.73-1.33.42-.23-3.04-5.74.21-.13-1.8-3.34-.27-.21-1.9-.2-.52.1.02-.54,2.52.32.34.29,3.28,5.96,1.11,2.01.44.61.57.43,4.28.27.18-.16.37-.46.28-.08.65.21.72.73.45.02.51-.23,1.56-.89,1.05-.6,1.39-.79-.02-.7,14.13-7.11,2.41-1.25,1.01-.52,4.08-2.12,2.15-1.1.07-.04,7.62-3.94,1.02-.53.43-.22.15-.17.15-.61-.05-.51-.08-.42.95.27,2.79-1.45.15-.54.51-.11.61.7,4.52-2.03,6.05-3.13,2.43-1.38,5.73-4.98.48-.42,1.14-.68,8.41-3.07,1.92-.73,1.14-.47.63-.3.52-.28.99-.53,4.8-2.59,8.54-4.59,1.15-.52h.3s1,.76,1,.76l1.13-.58,1.13-.58.32-.18,1.13-.61,1.14-.62.14-.5.74-.39.86-.46.51.95.63-.34.38-.2.96-.53.27.5.93-.51.13.25.54-.3.71-.39.32-.18.64-.35.6-.33-.38-.7.64-.35.34-.19.28-.15.33-.18-.2-.36.07-.04.22-.12.06-.03.08.14.54-.29.14-.08.12.21.59-.32.62-.34,1.25-.68h.3s.25.28.25.28l.17.3.6-.32.61-.33.19.35.62-.34.69-.38.66-.36.62-.34-.66-1.2.71-.39.59-.32.5.9,1.16-.62.36-.2,1.19-.65.89.04.6-.32.67-.37.66-.36-.04-.07.6-.32.25-.14.4-.21.18.34.65-.35.62-.34-.15-.93,1.2-.68.56-.3.03-1.79,2.71-1.48.65,1.18,1.2-.65,1.25-.54.06-.13-.23-.65v-.12l1.22-.66.58-.3.08-.04.53-.45.14-.12,1.98-1.02.5-.52.86.18,3.28-1.65,1.32-1.27.93-.57.4-.25.41-.25,1.12.13.53-.39.57-.2.8.11.31.25.29.09.33-.21.61-.39.11-.07-.5-.92,4.53-2.5,1-.56,1.09-.61.93-.51.83,1.5,1.83-.95,2.72-1.36,7.73-3.86,3.25-1.86.43-1.94.28-.17.08-.05.23-.14.38-.23.11-.07.43-.27.23-.14.21-.13.38-.23.2-.12.37-.21.19-.11.2-.11.43-.25.14-.08.23-.13.15-.09.21-.12.24-.14.08-.05,1.05-.6.51-.29.44-.25.17-.09,2.1-1.26,1.95-1.17.25.16.25-.14,1.76-1.18.23-.02.86.25.57,1.12,1.05-.57.41-.22,1.73-.94,2.81-1.79.32-.02.44-.09.57-.2.7-.38.69-.38.63-.34.12.25.38-.21.37-.2,2.36-1.29,1.83-1,.55-.32.52-.3.79-.45.83-.48.41-.24,1.2-.69.43-.23.41-.23.44.68.59-.39.64-.42.32-.21-.29-.45.93-.49.34-.18.33-.17.64-.34.7-.37.04-.02.04-.02.26-.16.26-.16.56-.35.27-.18.3-.19.73-.48.3-.2.29-.19.52-.34.55-.36.48-.32.31-.2.29-.19.24-.16.27-.18.53-.35.54-.36.53-.35.55-.36.52-.34.6-.39.22-.15.24-.16.68-.45.02.04.66-.43,1.89-1.27-.04-.05.57-.38.52-.34.51-.34.6-.4.48-.32.34-.22.36-.24.61-.41.68-.45.66-.42.34-.2.34-.2.71-.41.39-.23.31-.18.34-.2.36-.21.72-.45.36-.22.38-.23.25-.15.31-.19.59-.36.56-.34.65-.39.45-.29.43-.28.47-.3.45-.29.38-.24.36-.23,1.02-.64,4.49-3.15,1.38-1.35-.19-.52-.12-.58.17-.51.52-.7v-.58s.07-.58.07-.58l.38-.19-.21.54.1,1.24-.2.34-.39.28-.03.31.59.05.41-.25-.02-.48,1.61-2.67.75-1.23,1.29-1.75,2.98-3.89.51-.49,1.05-.86,1.21-.83,1.68-1,.28-.14.27-.11.2-.05.27-.04.28-.05.37-.03,3.57-.07,2.16-.18,1.09-.33.82-.43.36-.21.16.28,1.26-.81.15-.29,13.21-8.75,1.9-1.21.96-.68-.16-.24.62-.4.19.28,4.24-2.64,2.05-1.86.89-1.8.15-1.21-.32-1.48-.63-1.07-.49-1.23-1.01-1.76-.68-1.11-.36-.59-.46-.47-.23-.58.18-.64.66-1.02.22-.89.47-.09.13.25.27.5.31.57,1,1.44.34.48.56.82.85,1.24,3.14,4.6.91.26.37-.24.17-.11.08-.05,1-.66.38-.25,1.95-1.3.29-1.8.25-1.59-.21-.36-.85-1.28-.62.37-.2-.27.72-.45.06-.1.04-.07-1.23-1.83.1-.22.07-.04h.35s.58.98.58.98l.94.39,1.03.21.94-.05.43-.18,1.04-.59,9.41-6.35.95.33h.77s4.09-2.79,4.09-2.79l.88.06.37-1.12v-.05l.04-.05,2.53.22,4.23-1.15,1.64-.46.69-.45.92-.18.45.34,3.08-2.36,2.77-1.91-1.39-2.04.07-.07.48-.64.34-.46.64-.86.15-.27.12-.23.44-.78.06-.11-.23-.16.39-.85.23.14.13-.28.26-.65.64-1.68.08-.19.46-.55.66-.81.23-.28.54-.66.52.36.72-1.02.53-.56.62-.56.49-.47.5-.54.21-.3.52-1.73.32-.46.43-.77.73.36.38.18.52-.77.41-1.02.69.09-.1.25.3.09,1.12-.72.67-1.77.1-.27.26-.18.34-1.5.21-.62.2-1.42v-.46s.33-3.25.33-3.25l.61-3.57.34.06.1-.38.54.09.34-1.68.06-1.48-.21-.06-.04-.21.02-.29.27-1.81.11-.74.32-1.19.02-1.39.03-.21.44-1.27.17-.51.15-.45.05-.13.07-.2.07-.23.2-.67.23-.8.09-.31.18-.62.2-.67.36-1.22-.54-1.08-1.21-1.02-.62-.53.12-.41.2-.64.22-.73.44-.79.04-.37.03-.42.13-.51,1.18.14.16-.6.55.05.16-.37.13-.75.43-2.05.46-3.48-.07-.6-.14-.22-2.25-.96.15-.82.11-.6-1.07-3.08-3.74-2.05-.21-.11-3.06-1.61-.76.14-.75.14-1.49-.56-1.31-.72-1.34-1.27.24-.27.11.13-.07.14,1.31,1.2,1.29.64,1.29.54.29-.04.22-.56-.12-.07.24-.45.22-.41.14.07.41-.84-.06-.26-3.29-1.48-.42-.15-.05-.23.2-.04,3.92,1.85,1.17.45,1.75.68,2.26.59,1.54.12h1.28s.55-.02.55-.02l1.23-.22,1.05-.39,2.36-1.05.3-.3,6.29-3.54.09-.05.08-.05.7-.37.45-.1.15.29.24-.11.47-.15.02.05.5-.12.21-.05.24-.06.36-.12.12-.04.69-.04.06.09.43.61,1.32.74.45.04,1.46-.22,1.73-3.21,14.97-1.79.43-.05.08-.19.32-.04.52-.02.16-.16-.05-.24-.62-.25.05-.15.62-1.43.74-1.05,1.26-1.07,1.24-.96.81-.58.88-.46,1.18-.29.2-.02.15.06.07.05.06.3.07.07.66-.13.04-.07-.08-.31.02-.09.07-.08.11-.05,5.96-1.27.62-.12,5.16-1.14.17-.03,11.38-1.2,4.39-.46,17.29-2.52,3.23-.53,3.07-.48,5.65-.88,1.17-.18,6.64-1.59,11.36-2.89,1.9-.48.87,1.43,1.03-.05,7.42-1.99.36-.1,2.02-.11,1.7-.73.17-.08,3.73-1.64-.2-.47,1.9-.91,1.35-1.02.32-.24.64-.48.31-.23,3.9-.95,1.11,3.02,2.6-.96,1.93-.72-.09-.32,2.04-.73-.04-.12-.05-.12v-.57l-.41-1.76,1.19-.4.13-.04,1.8-.56.42-.14.41-.13.31-.1,2.39-.78,1.61-.54.82,1.2.93,1.34,1.23-.44.59,1.85,4.44-1.29,1.04-.4,1.27-.49.33-.13,2.24-1.54,1.98-1.72.55-1.26.45-.24.95-.49,1.53.27,1.12.72,2.88-.3.29-.07,1.17-.4,1.65-.54.32-.11-.7-2.2.4-.67,1.47-.04,1.63-.62,2,.06.15.31.32-.11.03-.36,1.13-1.62,1.8-.17.16.66,2.47-.41,1.7-.83,2.35-.15,1.09-.13.22-.03,1.04-1.2,1.31-.43h1.27s1.43.68,1.43.68l.11.02.3.06.68.07,1.68-.45,3.4-.93.26-.07.43-.12.41-.14,1.45-.36.6-.16,1.11-.3.16-.05.18-.05.88-.23.41-.11.2-.05,2.48-.66,15.07-2.84-.5-1.73-.72-2.48,6.77-2.23.85.71,1.63-.56.2.49.11-.04.92-.3,1.55-.55,1.16.53,4.09-1.36.68-.78-.24-1.15,4.16-1.51.07.16,1.65-.52-.11-.5.76-.15,1.5-.46.29.67.67-.14.14-.03.32.73,2.82-1.19.46-.21,1.48-.66-.06-.35,1.16-.43.14-.29.2-.44.74-.43.71-1.09.14-.86.11-.86.02-.38.1-.57.39-.73,1.15-.48,6.34-2.27,8.19-2.88,1.74-.61,14.28-5.07.17-1.02.16-2.29.18-.04.13.08-.04.92-.11,2.32,2.75-1.03-.03-.5.04-.61.19-.95-.99-.4-1.02-.33h-.37s-.45.08-.45.08l-.43.06-.13-.02-.05-.11.02-.1.77-.18h.66l.96.24.91.37.28.14.54-.19.71-.27.71-.16.17.08.03.14-1.79.54-.22.21-.06.25-.16,1.38.06.2.45-.11.99-.28-.02-.69-.11-.41-.04-.39.03-.1.11-.05.18.05.05.22.18,1.06.36.22h2.63s1.61.4,1.61.4l1.95.6,1.38.02,1.06-.23,2.14-1.46.98-.39,2.07-.53,1.41-.65,2.43-2.13,8.16-3.14.84.32,2.02,1.66.77.28.74.06,7.98-2.99,2.85-1.06,2.8-1.03,4.24-1.64,6.84-3.6.96-.46,1.32-.68.18-1.06-.41-.38-.43.02-.77-.46-.18-.71.15-.43-.33-.67.39-.93.4-.46.43-.02.31-.43.63-.3.41-.13.27-.09h.55s.04-.01.04-.01v-.05s.02-.07.02-.07l.09-.46.52-.46.47.11-.07.63.41.25h.34s.81-1.04.81-1.04l-.23-4.69.89-.45-1.19-2.27,1.9-.95.49-.29.25-.69v-1.14s.19-.94.19-.94l.16-.38.26-.39.47-.4,2.8-1.48.2-.03.46-.27.14.02.12.05.12.16v.16l-.03.04h-.06s-.08-.09-.08-.09l-.12-.05-3.49,1.84-.23.22-.11.17-.03.19.04.35.17.34.51,1.02.62,1.25.12.24.42.84.05.11h.12s2.14,4.23,2.14,4.23l.41.8-.17.09,1.13,2.32.09-.04.03.07-.08.04,2.1,4.11"/>
    <path class="cls-1" d="M2301.97,566.02l-.06-.21-.7-1.38.61-1.26.27-.25"/>
  </g>
</svg>